<?xml version="1.0" encoding="UTF-8"?>
<svg width="16px" height="16px" viewBox="0 0 16 16" version="1.1" xmlns="http://www.w3.org/2000/svg" xmlns:xlink="http://www.w3.org/1999/xlink">
    <title>gear-black-16</title>
    <g id="PGXN-Logo" stroke="none" stroke-width="1" fill="none" fill-rule="evenodd">
        <g id="Small-Black-Gear" fill="#000000" fill-rule="nonzero">
            <path d="M11.7981831,0 L11.8068933,0.00996174021 L11.8068933,0.00996174021 L11.815526,0.0199234804 L11.8591927,0 L14.5014969,0 L15.2934861,1.37172647 L13.3442758,2.71940023 C13.446165,3.01771048 13.5312726,3.3213629 13.5991632,3.62900744 L13.6612986,3.93793268 L16,4.1595685 L16,6.84779313 L13.6406524,7.04011149 L13.5744426,7.34623499 C13.5264014,7.54986999 13.4704114,7.75255012 13.406421,7.95391405 L13.3044286,8.25492764 L15.2180242,9.61540199 L13.8738516,11.9434555 L11.7339734,10.930042 L11.5207527,11.1657688 C11.3760549,11.3197886 11.2263117,11.4675114 11.0718585,11.6087307 L10.8366883,11.8156562 L11.8129452,13.9492235 L9.48477341,15.2933874 L8.13729741,13.3441897 L7.83719321,13.4405715 C7.63601186,13.5010065 7.43266911,13.5539186 7.22753916,13.5991787 L6.91855063,13.6613137 L6.69701662,16 L4.00867142,16 L3.81645504,13.6404612 L3.5103457,13.574355 C3.30672873,13.5263141 3.10407957,13.4703245 2.90273369,13.4063345 L2.60173428,13.3043428 L1.2410447,15.2180292 L0,14.5015065 L0,0 L11.7981831,0 Z M3.10065036,5.41743175 C2.70176525,5.18475028 2.23464437,5.24317872 2.05667389,5.54791507 L2.05667389,5.54791507 L1.96056571,5.71267089 C1.78259523,6.01751047 1.96159802,6.45324628 2.36027666,6.68572129 L2.36027666,6.68572129 L5.84143698,8.71791629 C6.24021885,8.95059777 6.7075462,8.89227255 6.88541344,8.58743298 L6.88541344,8.58743298 L6.98162486,8.42288361 C7.1594921,8.1182505 6.98038608,7.68230823 6.58181067,7.4494203 L6.58181067,7.4494203 Z M4.05791267,3.77802869 C3.65902756,3.54534721 3.19170022,3.60367242 3.01372974,3.90840877 L3.01372974,3.90840877 L2.91762155,4.07316459 C2.73965108,4.37769448 2.91855063,4.81343028 3.31743574,5.04611176 L3.31743574,5.04611176 L6.79849283,7.0781003 C7.19706824,7.3111947 7.66460204,7.25266302 7.84267575,6.94782345 L7.84267575,6.94782345 L7.93888717,6.78327408 C8.11675441,6.47843451 7.93744193,6.0426987 7.53886652,5.80981077 L7.53886652,5.80981077 Z M5.01476205,2.13810946 C4.61587695,1.90573768 4.14865283,1.96406289 3.97068236,2.26869601 L3.97068236,2.26869601 L3.8746774,2.43355506 C3.69681016,2.73829141 3.87570971,3.17392398 4.27459482,3.40660546 L4.27459482,3.40660546 L7.7556519,5.43849077 C8.15422731,5.67137871 8.62176112,5.61315672 8.79962837,5.30831715 L8.79962837,5.30831715 L8.89583979,5.14356132 C9.07391349,4.83882498 8.89460101,4.40308917 8.49581914,4.17030447 L8.49581914,4.17030447 Z" id="Combined-Shape"></path>
        </g>
    </g>
</svg>